<svg fill="#474747" width="206px" height="206px" viewBox="-3.6 -3.6 31.20 31.20" xmlns="http://www.w3.org/2000/svg" stroke="#474747" stroke-width="0.00024000000000000003"><g id="SVGRepo_bgCarrier" stroke-width="0"></g><g id="SVGRepo_tracerCarrier" stroke-linecap="round" stroke-linejoin="round" stroke="#CCCCCC" stroke-width="1.44"><path d="M22,3H2A1,1,0,0,0,1,4V20a1,1,0,0,0,1,1H22a1,1,0,0,0,1-1V4A1,1,0,0,0,22,3ZM21,19H3V9.477l8.628,3.452a1.01,1.01,0,0,0,.744,0L21,9.477ZM21,7.323l-9,3.6-9-3.6V5H21Z"></path></g><g id="SVGRepo_iconCarrier"><path d="M22,3H2A1,1,0,0,0,1,4V20a1,1,0,0,0,1,1H22a1,1,0,0,0,1-1V4A1,1,0,0,0,22,3ZM21,19H3V9.477l8.628,3.452a1.01,1.01,0,0,0,.744,0L21,9.477ZM21,7.323l-9,3.6-9-3.6V5H21Z"></path></g></svg>